<?xml version="1.0" encoding="UTF-8" standalone="no"?><!DOCTYPE svg PUBLIC "-//W3C//DTD SVG 1.1//EN" "http://www.w3.org/Graphics/SVG/1.1/DTD/svg11.dtd"><svg width="100%" height="100%" viewBox="0 0 4000 4000" version="1.1" xmlns="http://www.w3.org/2000/svg" xmlns:xlink="http://www.w3.org/1999/xlink" xml:space="preserve" xmlns:serif="http://www.serif.com/" style="fill-rule:evenodd;clip-rule:evenodd;stroke-linejoin:round;stroke-miterlimit:2;"><rect x="0" y="0" width="4000" height="4000" style="fill:#495ade;"/><g><g><path d="M2674.11,2077.97l-1334.63,-135.788l23.847,-64.313l1300.69,132.336l10.093,67.765Z" style="fill:#3b7ffb;fill-rule:nonzero;"/><path d="M2511.03,2342.42l10.278,1.045c272.646,10.507 521.209,-20.601 847.278,-207.377c36.083,-22.27 62.056,-57.65 72.424,-98.654c10.373,-41.009 4.332,-84.445 -16.849,-121.125c-21.176,-36.68 -55.831,-63.743 -96.648,-75.467c-40.813,-11.719 -84.594,-7.193 -122.089,12.638c-260.557,148.95 -443.714,174.181 -671.452,164.484c-41.887,-0.732 -82.445,14.567 -113.324,42.73c-30.88,28.169 -49.737,67.063 -52.682,108.681c-2.94,41.619 10.246,82.789 36.855,115.039c26.61,32.25 64.609,53.12 106.177,58.318l0.032,-0.312Z" style="fill:#3b7ffb;fill-rule:nonzero;"/><path d="M1380.36,1831.66l1276.71,129.896l84.153,564.397c14.342,97.12 -4.605,196.195 -53.781,281.218c-42.157,72.719 -104.502,131.76 -179.552,170.029c-75.049,38.269 -159.608,54.15 -243.532,45.725l-714.645,-72.71c-83.509,-8.714 -162.762,-41.141 -228.332,-93.413c-65.576,-52.277 -114.702,-122.203 -141.545,-201.453c-30.932,-93.21 -29.429,-194.06 4.271,-286.254l196.257,-537.435Z" style="fill:#5d97ff;fill-rule:nonzero;"/><path d="M1550.73,574.714l1025.73,104.36c205.341,20.892 354.938,203.609 334.132,408.105l-58.654,576.494c-20.806,204.496 -204.136,353.335 -409.477,332.443l-1025.73,-104.36c-205.341,-20.892 -354.933,-203.603 -334.127,-408.099l58.654,-576.495c20.806,-204.496 204.131,-353.34 409.472,-332.448Z" style="fill:#3b7ffb;fill-rule:nonzero;"/><path d="M1778.02,597.839l1025.72,104.36c205.341,20.892 354.933,203.608 334.127,408.104l-58.654,576.495c-20.806,204.496 -204.131,353.335 -409.472,332.443l-1025.73,-104.36c-205.341,-20.892 -354.933,-203.603 -334.127,-408.099l58.654,-576.495c20.806,-204.495 204.132,-353.34 409.473,-332.448Z" style="fill:#5d97ff;fill-rule:nonzero;"/><path d="M3143.16,1107.7l-753.258,-76.639c-31.55,-3.21 -63.072,6.198 -87.643,26.142c-24.566,19.944 -40.165,48.802 -43.362,80.223l-22.938,225.45c-9.598,94.336 18.825,188.635 79.025,262.157c60.194,73.521 147.228,120.241 241.952,129.878l316.373,32.189c84.242,8.571 168.417,-16.536 234.02,-69.795c65.597,-53.26 107.249,-130.311 115.784,-214.203l26.945,-264.833c3.197,-31.42 -6.271,-62.829 -26.316,-87.312c-20.051,-24.484 -49.032,-40.047 -80.582,-43.257Z" style="fill:#a4c8ff;fill-rule:nonzero;"/><path d="M1866.35,1331.23c-68.445,-6.963 -118.309,-67.869 -111.374,-136.034c6.936,-68.165 68.044,-117.78 136.489,-110.816c68.451,6.964 118.315,67.869 111.38,136.035c-6.936,68.165 -68.044,117.78 -136.495,110.815Z" style="fill:#191c20;fill-rule:nonzero;"/><path d="M2939.58,1513.11l103.381,10.518c28.551,2.905 49.346,28.303 46.454,56.735c-2.893,28.432 -28.378,49.126 -56.929,46.221l-103.381,-10.518c-28.551,-2.905 -49.346,-28.308 -46.453,-56.74c2.893,-28.432 28.377,-49.121 56.928,-46.216Z" style="fill:#5d97ff;fill-rule:nonzero;"/><path d="M2590.21,1477.57l144.487,14.7c28.551,2.905 49.346,28.302 46.453,56.735c-2.893,28.432 -28.377,49.126 -56.928,46.221l-144.487,-14.7c-28.546,-2.905 -49.346,-28.308 -46.453,-56.74c2.893,-28.432 28.382,-49.121 56.928,-46.216Z" style="fill:#5d97ff;fill-rule:nonzero;"/><path d="M1451.37,935.575l-330.7,-33.646c-43.851,-4.462 -87.676,8.611 -121.829,36.338c-34.148,27.727 -55.831,67.836 -60.275,111.51l-37.672,370.271c-4.443,43.674 8.717,87.333 36.581,121.369c27.869,34.037 68.163,55.664 112.015,60.125l330.699,33.646l71.181,-699.613Z" style="fill:#5d97ff;fill-rule:nonzero;"/><path d="M1334.18,1048.36l-165.35,-16.823c-21.885,-2.227 -43.753,4.295 -60.8,18.134c-17.041,13.835 -27.863,33.856 -30.08,55.65l-29.312,288.096c-2.217,21.794 4.352,43.579 18.257,60.568c13.91,16.983 34.015,27.781 55.901,30.008l165.35,16.823l46.034,-452.456Z" style="fill:#a4c8ff;fill-rule:nonzero;"/><path d="M1464.03,2276.94c38.089,3.837 76.313,-5.737 108.026,-27.07c31.713,-21.328 54.91,-53.058 65.554,-89.671c10.645,-36.614 8.066,-75.796 -7.288,-110.736c-15.353,-34.934 -42.514,-63.421 -76.755,-80.493c-206.905,-103.146 -339.999,-183.42 -711.341,-429.876c-36.251,-24.255 -80.677,-33.182 -123.505,-24.821c-42.834,8.365 -80.558,33.335 -104.883,69.416c-24.32,36.087 -33.249,80.327 -24.812,122.989c8.431,42.667 33.534,80.263 69.78,104.518c385.499,255.723 525.131,339.802 746.726,450.077c18.364,8.772 38.195,14.086 58.498,15.667Z" style="fill:#5d97ff;fill-rule:nonzero;"/><path d="M2443.34,3322.33l37.26,-388.66c1.421,-14.818 -331.288,-732.02 -331.288,-732.02l-343.538,-29.441c-0,0 -454.95,657.7 -456.799,676.991l-34.979,364.862c-5.424,56.576 36.069,106.831 92.612,112.251l88.091,8.446c56.576,5.423 106.828,-36.036 112.251,-92.612l31.706,-330.718c3.614,-37.695 37.105,-65.358 74.834,-61.741l406.893,39.008c37.695,3.614 65.355,37.14 61.741,74.834l-31.705,330.718c-5.424,56.577 36.035,106.828 92.612,112.252l88.057,8.442c56.576,5.424 106.828,-36.035 112.252,-92.612" style="fill:#5d97ff;"/></g></g></svg>